<svg xmlns="http://www.w3.org/2000/svg" xmlns:xlink="http://www.w3.org/1999/xlink" width="500" zoomAndPan="magnify" viewBox="0 0 375 374.999991" height="500" preserveAspectRatio="xMidYMid meet" version="1.0"><defs><g/><clipPath id="befaed8ce0"><path d="M 287.746094 200.488281 L 301.246094 200.488281 L 301.246094 213.988281 L 287.746094 213.988281 Z M 287.746094 200.488281 " clip-rule="nonzero"/></clipPath><clipPath id="9891139efa"><path d="M 67.582031 200.488281 L 81.082031 200.488281 L 81.082031 213.988281 L 67.582031 213.988281 Z M 67.582031 200.488281 " clip-rule="nonzero"/></clipPath><clipPath id="a72108042e"><path d="M 37.355469 82.671875 L 331.355469 82.671875 L 331.355469 230.421875 L 37.355469 230.421875 Z M 37.355469 82.671875 " clip-rule="nonzero"/></clipPath><clipPath id="32fe366d80"><path d="M 111.179688 156.449219 L 257.429688 156.449219 L 257.429688 250.949219 L 111.179688 250.949219 Z M 111.179688 156.449219 " clip-rule="nonzero"/></clipPath></defs><g fill="#000000" fill-opacity="1"><g transform="translate(27.589905, 189.017772)"><g/></g></g><g fill="#000000" fill-opacity="1"><g transform="translate(30.044334, 179.098479)"><g><path d="M -21.601562 -11.214844 C -15.914062 -8.90625 -12.40625 -11.667969 -9.714844 -14.324219 C -7.011719 -17.027344 -2.890625 -21.292969 1.125 -19.660156 C 4.050781 -18.472656 4.558594 -15.050781 2.894531 -10.953125 C 2.332031 -9.574219 1.015625 -8.015625 -0.0859375 -7.097656 L -6.414062 -7.234375 L -6.832031 -5.359375 L -0.855469 -2.929688 C 1.5 -4.40625 3.667969 -6.984375 5.0625 -10.414062 C 8.050781 -17.769531 5.949219 -22.183594 1.347656 -24.050781 C -3.5 -26.023438 -7.394531 -23.269531 -11.394531 -19.78125 C -13.578125 -17.890625 -17.300781 -14 -20.3125 -15.222656 C -23.070312 -16.34375 -24.75 -19.167969 -23.21875 -22.933594 C -22.554688 -24.5625 -21.746094 -25.839844 -20.664062 -27.058594 L -14.207031 -26.769531 L -13.785156 -28.644531 L -19.46875 -30.957031 C -21.84375 -29.191406 -23.925781 -27.066406 -25.25 -23.804688 C -27.375 -18.582031 -26.699219 -13.289062 -21.601562 -11.214844 Z M -21.601562 -11.214844 "/></g></g></g><g fill="#000000" fill-opacity="1"><g transform="translate(39.154479, 157.319536)"><g><path d="M 2.050781 -9.160156 L -14.207031 -17.992188 L -15.636719 -16.40625 L -17.484375 -11.964844 L -15.90625 -11.46875 L -14.804688 -13.488281 L 0.0234375 -5.429688 L -0.566406 -2.363281 L 1.035156 -1.902344 L 5.539062 -10.191406 L 4.28125 -11.285156 Z M -24.40625 -20.964844 C -25.03125 -19.816406 -24.617188 -18.304688 -23.429688 -17.660156 C -22.238281 -17.015625 -20.75 -17.488281 -20.125 -18.636719 C -19.476562 -19.828125 -19.890625 -21.335938 -21.078125 -21.980469 C -22.269531 -22.628906 -23.757812 -22.15625 -24.40625 -20.964844 Z M -24.40625 -20.964844 "/></g></g></g><g fill="#000000" fill-opacity="1"><g transform="translate(45.265092, 145.950707)"><g><path d="M -17.824219 -20.800781 L -19.375 -19.335938 L -16.453125 -15.15625 L -17.378906 -11.929688 L -15.847656 -11.304688 L -14.410156 -13.492188 L -2.597656 -5.75 C 0.15625 -3.945312 3.261719 -4.066406 5.535156 -7.539062 C 6.945312 -9.691406 6.796875 -11.355469 6.292969 -13.464844 L 4.703125 -13.265625 C 5.050781 -11.90625 5.074219 -10.703125 4.183594 -9.34375 C 3.441406 -8.210938 1.804688 -7.9375 0.03125 -9.101562 L -12.085938 -17.042969 L -9.019531 -21.722656 L -10.203125 -22.875 L -13.445312 -17.933594 Z M -17.824219 -20.800781 "/></g></g></g><g fill="#000000" fill-opacity="1"><g transform="translate(52.92517, 134.322317)"><g/></g></g><g fill="#000000" fill-opacity="1"><g transform="translate(58.970858, 125.982719)"><g><path d="M -9.652344 -13.398438 L -8.3125 -14.371094 L -10.207031 -17.433594 C -9.675781 -18.667969 -8.785156 -19.75 -7.984375 -20.609375 C -6.167969 -22.554688 -3.78125 -22.859375 -1.441406 -20.671875 L 0.308594 -19.039062 C -3.695312 -14.753906 -7.652344 -9.0625 -3.035156 -4.75 C -0.167969 -2.070312 3.320312 -2.828125 5.90625 -5.597656 C 8.03125 -7.875 8.335938 -9.257812 8.515625 -11.5 L 10.226562 -10.949219 L 14.324219 -15.335938 L 13.351562 -16.675781 L 10.65625 -15.179688 L 2.839844 -22.480469 C -1.050781 -26.113281 -5.199219 -26.035156 -9.019531 -21.945312 C -10.589844 -20.265625 -11.675781 -18.375 -12.390625 -15.957031 Z M 6.640625 -13.125 C 7.179688 -11.324219 6.820312 -9.683594 5.589844 -8.363281 C 4.355469 -7.046875 2.273438 -6.335938 -0.101562 -8.554688 C -2.507812 -10.800781 -2.386719 -13.777344 1.496094 -17.929688 Z M 6.640625 -13.125 "/></g></g></g><g fill="#000000" fill-opacity="1"><g transform="translate(72.640286, 110.935282)"><g><path d="M 5.199219 -7.5 L -4.636719 -19.6875 C -3.9375 -21.121094 -3.011719 -22.5625 -1.640625 -23.667969 C 0.21875 -25.167969 2.910156 -25.136719 4.726562 -22.890625 L 12.433594 -13.335938 L 10.746094 -10.757812 L 12.046875 -9.71875 L 19.386719 -15.640625 L 18.613281 -17.105469 L 15.734375 -16 L 8.453125 -25.027344 C 5.449219 -28.75 1.664062 -29.058594 -2.167969 -25.96875 C -3.992188 -24.496094 -4.773438 -22.878906 -5.683594 -20.984375 L -7.996094 -21.265625 L -11.722656 -17.621094 L -10.457031 -16.554688 L -8.703125 -17.972656 L 1.898438 -4.835938 L 0.210938 -2.257812 L 1.476562 -1.191406 L 8.851562 -7.140625 L 8.113281 -8.632812 Z M 5.199219 -7.5 "/></g></g></g><g fill="#000000" fill-opacity="1"><g transform="translate(92.307745, 95.036004)"><g><path d="M 12.832031 -11.664062 C 12.378906 -9.933594 11.476562 -8.617188 9.882812 -7.683594 C 6.613281 -5.761719 2.707031 -7.867188 -0.03125 -12.539062 C -2.773438 -17.210938 -2.722656 -20.953125 1.054688 -23.171875 C 2.417969 -23.96875 4.035156 -24.238281 5.429688 -24.273438 Z M 13.890625 -10.035156 L 15.335938 -9 L 20.550781 -12.058594 L 20 -13.621094 L 16.992188 -12.953125 L 1.484375 -39.378906 L -0.519531 -38.78125 L -4.78125 -35.703125 L -3.6875 -34.460938 L -1.351562 -35.832031 L 4.265625 -26.257812 C 2.640625 -26.089844 1.070312 -25.640625 -0.253906 -24.863281 C -5.972656 -21.503906 -7.269531 -15.511719 -3.890625 -9.75 C -0.488281 -3.953125 4.570312 -2.105469 10.722656 -5.714844 C 12.628906 -6.835938 13.5625 -8.898438 13.890625 -10.035156 Z M 13.890625 -10.035156 "/></g></g></g><g fill="#000000" fill-opacity="1"><g transform="translate(112.528964, 83.492484)"><g/></g></g><g fill="#000000" fill-opacity="1"><g transform="translate(121.675887, 78.897999)"><g><path d="M 14.949219 -8.78125 C 14.152344 -7.183594 13 -6.082031 11.246094 -5.492188 C 7.652344 -4.285156 4.265625 -7.144531 2.539062 -12.277344 C 0.816406 -17.410156 1.632812 -21.066406 5.785156 -22.460938 C 7.28125 -22.964844 8.921875 -22.898438 10.292969 -22.644531 Z M 15.652344 -6.972656 L 16.855469 -5.660156 L 22.585938 -7.585938 L 22.367188 -9.226562 L 19.285156 -9.191406 L 9.527344 -38.238281 L 7.445312 -38.0625 L 2.640625 -35.925781 L 3.457031 -34.484375 L 6.023438 -35.347656 L 9.558594 -24.824219 C 7.933594 -24.992188 6.304688 -24.875 4.851562 -24.386719 C -1.4375 -22.273438 -3.933594 -16.671875 -1.808594 -10.34375 C 0.332031 -3.96875 4.90625 -1.125 11.664062 -3.394531 C 13.761719 -4.097656 15.097656 -5.929688 15.652344 -6.972656 Z M 15.652344 -6.972656 "/></g></g></g><g fill="#000000" fill-opacity="1"><g transform="translate(143.412583, 71.526852)"><g><path d="M 4.203125 -13.785156 C 3.785156 -17.976562 5.015625 -21.191406 8.832031 -21.910156 C 11.890625 -22.484375 13.902344 -21.070312 14.511719 -17.835938 C 14.625 -17.214844 14.652344 -16.34375 14.582031 -15.734375 Z M 13.269531 -4.148438 C 8.480469 -3.246094 5.457031 -6.628906 4.457031 -11.949219 L 4.417969 -12.171875 L 18.609375 -14.839844 C 18.820312 -15.660156 18.972656 -17.066406 18.746094 -18.261719 C 17.945312 -22.519531 13.667969 -24.515625 8.523438 -23.550781 C 2.3125 -22.382812 -1.460938 -17.542969 -0.175781 -10.710938 C 1.058594 -4.148438 5.546875 -0.539062 13.398438 -2.011719 C 16.28125 -2.554688 18.953125 -3.976562 20.535156 -6.0625 L 19.238281 -7.335938 C 17.636719 -5.839844 15.621094 -4.589844 13.269531 -4.148438 Z M 13.269531 -4.148438 "/></g></g></g><g fill="#000000" fill-opacity="1"><g transform="translate(165.155895, 67.505808)"><g><path d="M 8.722656 -0.0585938 C 13.949219 -0.394531 16.761719 -3.058594 16.515625 -6.886719 C 16.265625 -10.851562 12.742188 -12.164062 9.460938 -13.3125 C 7.285156 -14.078125 4.511719 -15.03125 4.382812 -17.054688 C 4.265625 -18.902344 5.800781 -20.3125 8.234375 -20.46875 C 9.675781 -20.558594 11.222656 -20.386719 12.246094 -19.957031 L 13.355469 -16.769531 L 14.953125 -17.1875 L 14.714844 -20.925781 C 12.714844 -21.792969 10.605469 -22.292969 8.621094 -22.164062 C 3.714844 -21.851562 0.664062 -19.304688 0.898438 -15.65625 C 1.125 -12.101562 3.925781 -10.742188 7.03125 -9.539062 C 9.625 -8.574219 12.847656 -7.695312 12.988281 -5.488281 C 13.128906 -3.324219 11.140625 -1.886719 8.257812 -1.703125 C 7.3125 -1.644531 5.847656 -1.910156 4.832031 -2.207031 L 3.066406 -6.480469 L 1.421875 -6.058594 L 1.726562 -1.285156 C 4.09375 -0.308594 6.785156 0.0625 8.722656 -0.0585938 Z M 8.722656 -0.0585938 "/></g></g></g><g fill="#000000" fill-opacity="1"><g transform="translate(182.86871, 66.444188)"><g><path d="M 9.097656 -2.296875 L 9.660156 -20.792969 L 7.601562 -21.351562 L 2.804688 -21 L 3.070312 -19.367188 L 5.371094 -19.296875 L 4.859375 -2.425781 L 1.855469 -1.570312 L 2.164062 0.0664062 L 11.59375 0.351562 L 12.003906 -1.261719 Z M 7.71875 -31.234375 C 6.410156 -31.273438 5.25 -30.226562 5.210938 -28.871094 C 5.167969 -27.519531 6.265625 -26.402344 7.570312 -26.363281 C 8.925781 -26.320312 10.085938 -27.371094 10.125 -28.722656 C 10.167969 -30.078125 9.074219 -31.191406 7.71875 -31.234375 Z M 7.71875 -31.234375 "/></g></g></g><g fill="#000000" fill-opacity="1"><g transform="translate(195.614698, 66.614939)"><g><path d="M 12.605469 -1.046875 L 8.601562 -2.796875 C 7.394531 -3.316406 6.667969 -4.046875 6.78125 -4.898438 C 6.808594 -5.121094 7.3125 -5.828125 7.480469 -6.082031 C 8.585938 -5.480469 9.855469 -5.089844 11.242188 -4.910156 C 16.121094 -4.273438 20.234375 -6.515625 20.863281 -11.347656 C 21.101562 -13.183594 20.804688 -14.769531 20.066406 -16.09375 L 17.5 -17.339844 L 21.570312 -16.808594 L 22.292969 -18.855469 L 16.546875 -19.101562 C 15.511719 -19.554688 14.371094 -19.882812 13.074219 -20.050781 C 7.839844 -20.734375 4.15625 -17.617188 3.632812 -13.589844 C 3.277344 -10.859375 4.210938 -8.597656 6.019531 -7.089844 L 3.023438 -3.292969 C 2.765625 -1.324219 4.402344 -0.246094 5.730469 0.382812 L 10.398438 2.625 C 12.542969 3.632812 14.988281 5.132812 14.707031 7.28125 C 14.382812 9.789062 11.386719 10.765625 8.253906 10.355469 C 4.945312 9.925781 3.050781 7.679688 3.289062 5.84375 C 3.4375 4.722656 4.265625 3.601562 5.699219 3.0625 L 4.980469 1.601562 C 3.011719 2.03125 0.644531 3.453125 0.347656 5.734375 C -0.136719 9.449219 3.738281 11.863281 7.988281 12.414062 C 13.3125 13.109375 18.582031 11.789062 19.257812 6.597656 C 19.734375 2.929688 16.910156 0.832031 12.605469 -1.046875 Z M 12.859375 -18.398438 C 15.453125 -18.058594 17.410156 -15.941406 16.890625 -11.957031 C 16.371094 -7.972656 13.738281 -6.269531 11.324219 -6.582031 C 8.859375 -6.902344 7.136719 -9.402344 7.65625 -13.386719 C 8.21875 -17.363281 10.261719 -18.734375 12.859375 -18.398438 Z M 12.859375 -18.398438 "/></g></g></g><g fill="#000000" fill-opacity="1"><g transform="translate(214.510136, 68.753864)"><g><path d="M 9.125 -0.179688 L 13.238281 -15.289062 C 14.8125 -15.5625 16.519531 -15.65625 18.21875 -15.195312 C 20.527344 -14.566406 22.078125 -12.367188 21.320312 -9.578125 L 18.09375 2.265625 L 15.011719 2.40625 L 14.933594 4.070312 L 24.035156 6.550781 L 24.765625 5.066406 L 22.183594 3.378906 L 25.234375 -7.808594 C 26.492188 -12.425781 24.523438 -15.675781 19.777344 -16.96875 C 17.515625 -17.585938 15.746094 -17.273438 13.679688 -16.898438 L 12.550781 -18.9375 L 7.414062 -19.824219 L 7.289062 -18.171875 L 9.46875 -17.578125 L 5.03125 -1.296875 L 1.949219 -1.152344 L 1.828125 0.5 L 10.972656 2.988281 L 11.746094 1.515625 Z M 9.125 -0.179688 "/></g></g></g><g fill="#000000" fill-opacity="1"><g transform="translate(239.15348, 75.849403)"><g/></g></g><g fill="#000000" fill-opacity="1"><g transform="translate(248.743723, 78.634238)"><g><path d="M 23.546875 -4.664062 L 19.65625 11.632812 L 23.203125 13.0625 L 37.074219 -0.359375 L 40.097656 0.253906 L 40.617188 -1.316406 L 34.601562 -4.707031 L 33.488281 -3.464844 L 35.582031 -1.203125 L 23.636719 10.355469 L 24.878906 8.152344 L 28.828125 -8.523438 L 25.558594 -9.796875 L 11.722656 3.648438 L 12.496094 2.269531 L 15.957031 -12.25 L 18.941406 -11.65625 L 19.460938 -13.226562 L 11.085938 -17.945312 L 10.011719 -16.683594 L 12.105469 -14.417969 L 7.503906 4.792969 L 11.246094 6.332031 L 24.609375 -6.550781 Z M 23.546875 -4.664062 "/></g></g></g><g fill="#000000" fill-opacity="1"><g transform="translate(278.26754, 96.040353)"><g><path d="M 8.71875 3.46875 L 20.011719 -11.191406 L 18.667969 -12.847656 L 14.574219 -15.375 L 13.835938 -13.894531 L 15.65625 -12.492188 L 5.359375 0.882812 L 2.421875 -0.1875 L 1.714844 1.320312 L 9.1875 7.078125 L 10.464844 6.011719 Z M 24.554688 -20.789062 C 23.519531 -21.589844 21.964844 -21.417969 21.136719 -20.347656 C 20.3125 -19.273438 20.542969 -17.726562 21.582031 -16.929688 C 22.652344 -16.101562 24.207031 -16.273438 25.035156 -17.34375 C 25.859375 -18.417969 25.628906 -19.964844 24.554688 -20.789062 Z M 24.554688 -20.789062 "/></g></g></g><g fill="#000000" fill-opacity="1"><g transform="translate(288.524553, 103.873082)"><g><path d="M 23.355469 -14.316406 L 22.152344 -16.078125 L 17.5625 -13.851562 L 14.523438 -15.277344 L 13.664062 -13.863281 L 15.597656 -12.101562 L 6.089844 -1.65625 C 3.871094 0.777344 3.503906 3.863281 6.570312 6.65625 C 8.472656 8.390625 10.140625 8.503906 12.304688 8.339844 L 12.359375 6.738281 C 10.957031 6.867188 9.769531 6.699219 8.566406 5.605469 C 7.566406 4.695312 7.550781 3.035156 8.980469 1.464844 L 18.734375 -9.242188 L 22.871094 -5.476562 L 24.199219 -6.464844 L 19.828125 -10.445312 Z M 23.355469 -14.316406 "/></g></g></g><g fill="#000000" fill-opacity="1"><g transform="translate(298.787054, 112.689519)"><g><path d="M 7.210938 4.378906 L 19.03125 -5.890625 C 20.457031 -5.214844 22.113281 -4.203125 23.238281 -2.90625 C 24.773438 -1.136719 24.605469 1.285156 22.425781 3.175781 L 13.15625 11.226562 L 10.488281 9.597656 L 9.5 10.9375 L 15.714844 18.09375 L 17.148438 17.265625 L 15.9375 14.429688 L 24.695312 6.824219 C 28.308594 3.6875 28.269531 -0.34375 25.074219 -4.027344 C 23.832031 -5.457031 21.851562 -6.425781 20.292969 -6.984375 L 30.34375 -15.714844 L 29.386719 -17.574219 L 25.519531 -21.269531 L 24.53125 -19.929688 L 26.335938 -17.851562 L 4.429688 1.175781 L 1.789062 -0.417969 L 0.769531 0.886719 L 6.984375 8.039062 L 8.417969 7.214844 Z M 7.210938 4.378906 "/></g></g></g><g fill="#000000" fill-opacity="1"><g transform="translate(314.608516, 131.409409)"><g/></g></g><g fill="#000000" fill-opacity="1"><g transform="translate(320.795147, 139.535519)"><g><path d="M 11.746094 13.214844 C 9.882812 13.003906 8.425781 11.949219 7.554688 10.367188 C 6.402344 8.273438 6.515625 5.480469 10.113281 3.5 L 22.292969 -3.195312 L 21.792969 -5.136719 L 19.117188 -8.96875 L 17.847656 -7.910156 L 18.824219 -6.128906 L 8.425781 -0.410156 C 4.195312 1.914062 2.523438 5.617188 4.894531 9.925781 C 6.109375 12.140625 7.210938 13.390625 9.730469 14.320312 L 8.699219 15.816406 L 11.613281 21.117188 L 13.1875 20.609375 L 12.605469 17.582031 L 28.816406 8.664062 L 28.46875 7.003906 L 25.621094 2.851562 L 24.351562 3.914062 L 25.351562 5.730469 Z M 11.746094 13.214844 "/></g></g></g><g fill="#000000" fill-opacity="1"><g transform="translate(332.145795, 160.428962)"><g><path d="M 2.734375 8.285156 C 4.65625 13.152344 8.058594 15.011719 11.628906 13.605469 C 15.320312 12.148438 15.488281 8.394531 15.574219 4.914062 C 15.632812 2.613281 15.6875 -0.320312 17.578125 -1.066406 C 19.300781 -1.746094 21.113281 -0.714844 22.007812 1.550781 C 22.539062 2.894531 22.847656 4.421875 22.75 5.527344 L 20.058594 7.558594 L 20.949219 8.953125 L 24.433594 7.578125 C 24.644531 5.410156 24.472656 3.246094 23.742188 1.398438 C 21.9375 -3.175781 18.578125 -5.292969 15.179688 -3.953125 C 11.863281 -2.644531 11.429688 0.4375 11.238281 3.765625 C 11.117188 6.527344 11.265625 9.863281 9.210938 10.675781 C 7.195312 11.472656 5.214844 10.023438 4.15625 7.335938 C 3.808594 6.453125 3.613281 4.976562 3.585938 3.921875 L 7.109375 0.929688 L 6.203125 -0.507812 L 1.753906 1.25 C 1.550781 3.804688 2.023438 6.480469 2.734375 8.285156 Z M 2.734375 8.285156 "/></g></g></g><g fill="#000000" fill-opacity="1"><g transform="translate(338.587436, 176.99632)"><g><path d="M 5.707031 4.863281 C 6.085938 6.164062 5.351562 7.507812 4.054688 7.886719 C 2.753906 8.269531 1.410156 7.535156 1.027344 6.234375 C 0.648438 4.9375 1.382812 3.59375 2.683594 3.210938 C 3.980469 2.828125 5.324219 3.5625 5.707031 4.863281 Z M 9.289062 4.894531 L 32.828125 -0.316406 L 33.066406 -2.222656 L 31.328125 -5.425781 L 8.703125 2.902344 Z M 9.289062 4.894531 "/></g></g></g><g clip-path="url(#befaed8ce0)"><path fill="#000000" d="M 301.246094 207.238281 C 301.246094 207.683594 301.203125 208.121094 301.117188 208.554688 C 301.03125 208.992188 300.902344 209.414062 300.734375 209.820312 C 300.5625 210.230469 300.355469 210.621094 300.109375 210.988281 C 299.863281 211.355469 299.585938 211.699219 299.269531 212.011719 C 298.957031 212.324219 298.617188 212.605469 298.246094 212.851562 C 297.878906 213.097656 297.492188 213.304688 297.082031 213.476562 C 296.671875 213.644531 296.25 213.773438 295.816406 213.859375 C 295.378906 213.945312 294.941406 213.988281 294.496094 213.988281 C 294.054688 213.988281 293.617188 213.945312 293.179688 213.859375 C 292.746094 213.773438 292.324219 213.644531 291.914062 213.476562 C 291.503906 213.304688 291.117188 213.097656 290.746094 212.851562 C 290.378906 212.605469 290.039062 212.324219 289.726562 212.011719 C 289.410156 211.699219 289.132812 211.355469 288.886719 210.988281 C 288.640625 210.621094 288.429688 210.230469 288.261719 209.820312 C 288.09375 209.414062 287.964844 208.992188 287.878906 208.554688 C 287.792969 208.121094 287.746094 207.683594 287.746094 207.238281 C 287.746094 206.796875 287.792969 206.355469 287.878906 205.921875 C 287.964844 205.488281 288.09375 205.066406 288.261719 204.65625 C 288.429688 204.246094 288.640625 203.855469 288.886719 203.488281 C 289.132812 203.121094 289.410156 202.777344 289.726562 202.464844 C 290.039062 202.152344 290.378906 201.871094 290.746094 201.625 C 291.117188 201.378906 291.503906 201.171875 291.914062 201.003906 C 292.324219 200.832031 292.746094 200.703125 293.179688 200.617188 C 293.617188 200.53125 294.054688 200.488281 294.496094 200.488281 C 294.941406 200.488281 295.378906 200.53125 295.816406 200.617188 C 296.25 200.703125 296.671875 200.832031 297.082031 201.003906 C 297.492188 201.171875 297.878906 201.378906 298.246094 201.625 C 298.617188 201.871094 298.957031 202.152344 299.269531 202.464844 C 299.585938 202.777344 299.863281 203.121094 300.109375 203.488281 C 300.355469 203.855469 300.5625 204.246094 300.734375 204.65625 C 300.902344 205.066406 301.03125 205.488281 301.117188 205.921875 C 301.203125 206.355469 301.246094 206.796875 301.246094 207.238281 Z M 301.246094 207.238281 " fill-opacity="1" fill-rule="nonzero"/></g><g clip-path="url(#9891139efa)"><path fill="#000000" d="M 81.082031 207.238281 C 81.082031 207.683594 81.039062 208.121094 80.953125 208.554688 C 80.867188 208.992188 80.738281 209.414062 80.570312 209.820312 C 80.398438 210.230469 80.191406 210.621094 79.945312 210.988281 C 79.699219 211.355469 79.417969 211.699219 79.105469 212.011719 C 78.792969 212.324219 78.449219 212.605469 78.082031 212.851562 C 77.714844 213.097656 77.324219 213.304688 76.914062 213.476562 C 76.507812 213.644531 76.082031 213.773438 75.648438 213.859375 C 75.214844 213.945312 74.777344 213.988281 74.332031 213.988281 C 73.890625 213.988281 73.449219 213.945312 73.015625 213.859375 C 72.582031 213.773438 72.160156 213.644531 71.75 213.476562 C 71.339844 213.304688 70.949219 213.097656 70.582031 212.851562 C 70.214844 212.605469 69.871094 212.324219 69.558594 212.011719 C 69.246094 211.699219 68.964844 211.355469 68.71875 210.988281 C 68.472656 210.621094 68.265625 210.230469 68.097656 209.820312 C 67.925781 209.414062 67.796875 208.992188 67.710938 208.554688 C 67.625 208.121094 67.582031 207.683594 67.582031 207.238281 C 67.582031 206.796875 67.625 206.355469 67.710938 205.921875 C 67.796875 205.488281 67.925781 205.066406 68.097656 204.65625 C 68.265625 204.246094 68.472656 203.855469 68.71875 203.488281 C 68.964844 203.121094 69.246094 202.777344 69.558594 202.464844 C 69.871094 202.152344 70.214844 201.871094 70.582031 201.625 C 70.949219 201.378906 71.339844 201.171875 71.75 201.003906 C 72.160156 200.832031 72.582031 200.703125 73.015625 200.617188 C 73.449219 200.53125 73.890625 200.488281 74.332031 200.488281 C 74.777344 200.488281 75.214844 200.53125 75.648438 200.617188 C 76.082031 200.703125 76.507812 200.832031 76.914062 201.003906 C 77.324219 201.171875 77.714844 201.378906 78.082031 201.625 C 78.449219 201.871094 78.792969 202.152344 79.105469 202.464844 C 79.417969 202.777344 79.699219 203.121094 79.945312 203.488281 C 80.191406 203.855469 80.398438 204.246094 80.570312 204.65625 C 80.738281 205.066406 80.867188 205.488281 80.953125 205.921875 C 81.039062 206.355469 81.082031 206.796875 81.082031 207.238281 Z M 81.082031 207.238281 " fill-opacity="1" fill-rule="nonzero"/></g><g clip-path="url(#a72108042e)"><path stroke-linecap="butt" transform="matrix(0.928333, 0, 0, 0.928127, 37.446268, 82.672891)" fill="none" stroke-linejoin="miter" d="M 313.998622 447.611611 L 2.460542 447.611611 L 2.460542 154.097912 C 2.460542 151.618961 2.519451 149.14001 2.641478 146.661059 C 2.763504 144.182107 2.948648 141.707365 3.188493 139.236832 C 3.432546 136.766298 3.735509 134.304182 4.101589 131.850483 C 4.463461 129.396785 4.88845 126.951504 5.372348 124.51464 C 5.856247 122.081985 6.403263 119.661956 7.00498 117.254554 C 7.606697 114.847152 8.267324 112.456584 8.991068 110.082852 C 9.710604 107.704911 10.489049 105.352222 11.322196 103.012159 C 12.159551 100.676306 13.051608 98.361496 14.002573 96.071938 C 14.953539 93.778172 15.959207 91.509658 17.019576 89.266397 C 18.079945 87.023135 19.195015 84.805127 20.364787 82.616579 C 21.534559 80.428031 22.759033 78.268945 24.034 76.143529 C 25.308968 74.013903 26.638637 71.917948 28.014592 69.851454 C 29.394754 67.789169 30.821203 65.760553 32.302353 63.769817 C 33.779296 61.774872 35.306732 59.817805 36.880454 57.898617 C 38.454176 55.983638 40.074185 54.102329 41.740479 52.263107 C 43.406773 50.423885 45.119353 48.630959 46.874011 46.875913 C 48.628669 45.120866 50.425405 43.407906 52.26422 41.741243 C 54.103034 40.07458 55.983927 38.454213 57.90269 36.880142 C 59.817245 35.306071 61.773878 33.778297 63.768381 32.301027 C 65.762885 30.823757 67.791051 29.392784 69.852879 28.016524 C 71.914708 26.636056 74.014407 25.310301 76.14356 24.035051 C 78.268506 22.759801 80.427114 21.535056 82.619385 20.365025 C 84.807448 19.194994 87.020758 18.079676 89.263522 17.019072 C 91.510494 15.958469 93.778506 14.952578 96.071764 14.001402 C 98.360814 13.054434 100.679319 12.16218 103.014656 11.32464 C 105.349992 10.487099 107.706368 9.708482 110.079574 8.988786 C 112.456989 8.269091 114.847027 7.608318 117.253896 7.006467 C 119.660765 6.400408 122.084466 5.857479 124.516582 5.373474 C 126.948698 4.889468 129.393437 4.464385 131.8508 4.102433 C 134.303956 3.736272 136.765526 3.433242 139.235513 3.189135 C 141.705499 2.945028 144.179693 2.764052 146.658095 2.641998 C 149.136497 2.519944 151.619107 2.461022 154.101717 2.461022 L 162.311161 2.461022 C 164.793771 2.461022 167.272173 2.519944 169.750575 2.641998 C 172.233185 2.759843 174.707379 2.945028 177.177365 3.184926 C 179.647352 3.429033 182.108922 3.732063 184.566285 4.094015 C 187.01944 4.460176 189.46418 4.881051 191.900504 5.365056 C 194.336828 5.849062 196.75632 6.39199 199.16319 6.993841 C 201.574267 7.595691 203.964305 8.256464 206.341719 8.97616 C 208.714926 9.695855 211.071301 10.474473 213.410845 11.312014 C 215.746182 12.145345 218.060479 13.037599 220.353737 13.988776 C 222.646996 14.939952 224.919215 15.941634 227.161979 17.002237 C 229.404744 18.062841 231.622261 19.178159 233.810324 20.34819 C 236.002595 21.518221 238.161203 22.742966 240.290357 24.018216 C 242.41951 25.293466 244.515001 26.619221 246.581038 27.999689 C 248.642866 29.375949 250.67524 30.806922 252.669744 32.284192 C 254.660039 33.761462 256.616672 35.289236 258.539643 36.863307 C 260.458406 38.437378 262.335091 40.057745 264.173905 41.724408 C 266.016927 43.391071 267.813664 45.099822 269.568322 46.854869 C 271.32298 48.609916 273.03556 50.40705 274.701854 52.246272 C 276.368148 54.085494 277.992364 55.966803 279.566086 57.881782 C 281.139808 59.80097 282.667244 61.758037 284.144187 63.752982 C 285.625337 65.743718 287.055994 67.772334 288.431949 69.838828 C 289.812111 71.901113 291.14178 73.997068 292.416748 76.126694 C 293.691715 78.256319 294.916189 80.415405 296.085961 82.603953 C 297.255733 84.7925 298.375012 87.010509 299.43538 89.253771 C 300.495749 91.497032 301.501417 93.765546 302.452383 96.059312 C 303.403348 98.353078 304.295405 100.667888 305.13276 103.003742 C 305.970115 105.339596 306.74856 107.696493 307.468096 110.070226 C 308.187632 112.448167 308.848259 114.838734 309.454184 117.246137 C 310.055901 119.653539 310.598709 122.077776 311.086815 124.510431 C 311.570714 126.943086 311.995703 129.388367 312.357575 131.846275 C 312.723655 134.299973 313.026617 136.762089 313.270671 139.232623 C 313.514724 141.703156 313.69566 144.177899 313.817686 146.65685 C 313.939713 149.135801 313.998622 151.618961 313.998622 154.097912 Z M 313.998622 447.611611 " stroke="#231f20" stroke-width="4.92" stroke-opacity="1" stroke-miterlimit="10"/></g><path fill="#facf03" d="M 125.332031 217.867188 L 125.332031 170.636719 C 125.332031 164.117188 130.613281 158.832031 137.125 158.832031 L 231.480469 158.832031 C 237.996094 158.832031 243.277344 164.117188 243.277344 170.636719 L 243.277344 217.867188 " fill-opacity="1" fill-rule="nonzero"/><path fill="#facf03" d="M 255.070312 185.988281 L 255.070312 233.21875 C 255.070312 236.480469 252.429688 239.121094 249.171875 239.121094 L 119.433594 239.121094 C 116.179688 239.121094 113.539062 236.480469 113.539062 233.21875 L 113.539062 185.988281 C 113.539062 182.726562 116.179688 180.085938 119.433594 180.085938 L 131.230469 180.085938 C 134.488281 180.085938 137.125 182.726562 137.125 185.988281 L 137.125 215.507812 L 231.480469 215.507812 L 231.480469 185.988281 C 231.480469 182.726562 234.121094 180.085938 237.378906 180.085938 L 249.171875 180.085938 C 252.429688 180.085938 255.070312 182.726562 255.070312 185.988281 Z M 255.070312 185.988281 " fill-opacity="1" fill-rule="nonzero"/><path fill="#facf03" d="M 231.480469 215.507812 L 137.125 215.507812 L 137.125 208.421875 C 137.125 201.902344 142.40625 196.613281 148.921875 196.613281 L 219.6875 196.613281 C 226.199219 196.613281 231.480469 201.902344 231.480469 208.421875 Z M 231.480469 215.507812 " fill-opacity="1" fill-rule="nonzero"/><path fill="#facf03" d="M 129.753906 248.566406 L 122.972656 248.566406 L 122.972656 239.121094 L 132.410156 239.121094 Z M 129.753906 248.566406 " fill-opacity="1" fill-rule="nonzero"/><path fill="#facf03" d="M 238.851562 248.566406 L 245.632812 248.566406 L 245.632812 239.121094 L 236.199219 239.121094 Z M 238.851562 248.566406 " fill-opacity="1" fill-rule="nonzero"/><g clip-path="url(#32fe366d80)"><path fill="#000000" d="M 249.171875 177.722656 L 245.632812 177.722656 L 245.632812 170.636719 C 245.632812 162.824219 239.285156 156.46875 231.480469 156.46875 L 137.125 156.46875 C 129.320312 156.46875 122.972656 162.824219 122.972656 170.636719 L 122.972656 177.722656 L 119.433594 177.722656 C 114.882812 177.722656 111.179688 181.429688 111.179688 185.988281 L 111.179688 233.21875 C 111.179688 237.777344 114.882812 241.484375 119.433594 241.484375 L 120.613281 241.484375 L 120.613281 248.566406 C 120.613281 249.871094 121.671875 250.929688 122.972656 250.929688 L 129.753906 250.929688 C 130.8125 250.929688 131.738281 250.226562 132.027344 249.207031 L 134.195312 241.484375 L 234.414062 241.484375 L 236.582031 249.207031 C 236.867188 250.226562 237.796875 250.929688 238.851562 250.929688 L 245.632812 250.929688 C 246.9375 250.929688 247.992188 249.871094 247.992188 248.566406 L 247.992188 241.484375 L 249.171875 241.484375 C 253.726562 241.484375 257.429688 237.777344 257.429688 233.21875 L 257.429688 185.988281 C 257.429688 181.429688 253.726562 177.722656 249.171875 177.722656 Z M 127.691406 170.636719 C 127.691406 165.429688 131.921875 161.191406 137.125 161.191406 L 231.480469 161.191406 C 236.6875 161.191406 240.917969 165.429688 240.917969 170.636719 L 240.917969 177.722656 L 237.378906 177.722656 C 232.824219 177.722656 229.121094 181.429688 229.121094 185.988281 L 229.121094 197.871094 C 226.617188 195.621094 223.308594 194.253906 219.6875 194.253906 L 148.921875 194.253906 C 145.300781 194.253906 141.992188 195.621094 139.484375 197.871094 L 139.484375 185.988281 C 139.484375 181.429688 135.78125 177.722656 131.230469 177.722656 L 127.691406 177.722656 Z M 229.121094 208.421875 L 229.121094 213.144531 L 139.484375 213.144531 L 139.484375 208.421875 C 139.484375 203.214844 143.714844 198.976562 148.921875 198.976562 L 219.6875 198.976562 C 224.890625 198.976562 229.121094 203.214844 229.121094 208.421875 Z M 127.96875 246.207031 L 125.332031 246.207031 L 125.332031 241.484375 L 129.296875 241.484375 Z M 243.277344 246.207031 L 240.640625 246.207031 L 239.3125 241.484375 L 243.277344 241.484375 Z M 252.710938 233.21875 C 252.710938 235.171875 251.125 236.761719 249.171875 236.761719 L 119.433594 236.761719 C 117.484375 236.761719 115.898438 235.171875 115.898438 233.21875 L 115.898438 185.988281 C 115.898438 184.035156 117.484375 182.445312 119.433594 182.445312 L 131.230469 182.445312 C 133.179688 182.445312 134.769531 184.035156 134.769531 185.988281 L 134.769531 215.507812 C 134.769531 216.8125 135.824219 217.867188 137.125 217.867188 L 231.480469 217.867188 C 232.785156 217.867188 233.839844 216.8125 233.839844 215.507812 L 233.839844 185.988281 C 233.839844 184.035156 235.425781 182.445312 237.378906 182.445312 L 249.171875 182.445312 C 251.125 182.445312 252.710938 184.035156 252.710938 185.988281 Z M 252.710938 233.21875 " fill-opacity="1" fill-rule="nonzero"/></g><path stroke-linecap="round" transform="matrix(0.000000000000000046, -0.752613, 0.75, 0.000000000000000046, 182.887668, 210.43106)" fill="none" stroke-linejoin="miter" d="M 2.000069 1.998735 L 6.972328 1.998735 " stroke="#000000" stroke-width="4" stroke-opacity="1" stroke-miterlimit="4"/><path fill="#facf03" d="M 49.75 269.394531 L 327.75 269.394531 L 327.75 323.648438 L 49.75 323.648438 L 49.75 269.394531 " fill-opacity="1" fill-rule="nonzero"/><g fill="#000000" fill-opacity="1"><g transform="translate(64.831736, 304.922269)"><g><path d="M 11.421875 -26.34375 C 12.816406 -26.34375 14.179688 -26.140625 15.515625 -25.734375 C 16.859375 -25.328125 17.851562 -24.921875 18.5 -24.515625 L 19.4375 -23.890625 L 17.0625 -19.1875 C 16.875 -19.3125 16.613281 -19.472656 16.28125 -19.671875 C 15.945312 -19.867188 15.316406 -20.132812 14.390625 -20.46875 C 13.472656 -20.8125 12.617188 -20.984375 11.828125 -20.984375 C 10.835938 -20.984375 10.078125 -20.769531 9.546875 -20.34375 C 9.015625 -19.925781 8.75 -19.363281 8.75 -18.65625 C 8.75 -18.300781 8.875 -17.972656 9.125 -17.671875 C 9.375 -17.367188 9.800781 -17.046875 10.40625 -16.703125 C 11.019531 -16.359375 11.554688 -16.078125 12.015625 -15.859375 C 12.472656 -15.648438 13.179688 -15.335938 14.140625 -14.921875 C 15.816406 -14.210938 17.242188 -13.242188 18.421875 -12.015625 C 19.609375 -10.796875 20.203125 -9.414062 20.203125 -7.875 C 20.203125 -6.382812 19.929688 -5.085938 19.390625 -3.984375 C 18.859375 -2.878906 18.128906 -2.007812 17.203125 -1.375 C 16.273438 -0.75 15.242188 -0.285156 14.109375 0.015625 C 12.984375 0.316406 11.757812 0.46875 10.4375 0.46875 C 9.3125 0.46875 8.203125 0.351562 7.109375 0.125 C 6.023438 -0.101562 5.117188 -0.390625 4.390625 -0.734375 C 3.660156 -1.078125 3 -1.414062 2.40625 -1.75 C 1.820312 -2.09375 1.394531 -2.378906 1.125 -2.609375 L 0.71875 -2.953125 L 3.671875 -7.90625 C 3.921875 -7.695312 4.265625 -7.425781 4.703125 -7.09375 C 5.140625 -6.769531 5.914062 -6.335938 7.03125 -5.796875 C 8.15625 -5.253906 9.144531 -4.984375 10 -4.984375 C 12.488281 -4.984375 13.734375 -5.832031 13.734375 -7.53125 C 13.734375 -7.882812 13.644531 -8.210938 13.46875 -8.515625 C 13.289062 -8.816406 12.976562 -9.117188 12.53125 -9.421875 C 12.082031 -9.722656 11.679688 -9.960938 11.328125 -10.140625 C 10.984375 -10.316406 10.421875 -10.585938 9.640625 -10.953125 C 8.859375 -11.328125 8.28125 -11.609375 7.90625 -11.796875 C 6.332031 -12.566406 5.117188 -13.53125 4.265625 -14.6875 C 3.410156 -15.851562 2.984375 -17.101562 2.984375 -18.4375 C 2.984375 -20.757812 3.835938 -22.65625 5.546875 -24.125 C 7.265625 -25.601562 9.222656 -26.34375 11.421875 -26.34375 Z M 11.421875 -26.34375 "/></g></g></g><g fill="#000000" fill-opacity="1"><g transform="translate(85.905819, 304.922269)"><g><path d="M 3.390625 -1.90625 C 1.609375 -3.5 0.71875 -5.539062 0.71875 -8.03125 C 0.71875 -10.519531 1.644531 -12.5625 3.5 -14.15625 C 5.363281 -15.757812 7.664062 -16.5625 10.40625 -16.5625 C 13.101562 -16.5625 15.375 -15.753906 17.21875 -14.140625 C 19.070312 -12.535156 20 -10.5 20 -8.03125 C 20 -5.5625 19.09375 -3.523438 17.28125 -1.921875 C 15.476562 -0.328125 13.1875 0.46875 10.40625 0.46875 C 7.519531 0.46875 5.179688 -0.320312 3.390625 -1.90625 Z M 7.6875 -10.75 C 6.96875 -10.039062 6.609375 -9.128906 6.609375 -8.015625 C 6.609375 -6.910156 6.953125 -6.007812 7.640625 -5.3125 C 8.335938 -4.613281 9.25 -4.265625 10.375 -4.265625 C 11.46875 -4.265625 12.363281 -4.617188 13.0625 -5.328125 C 13.757812 -6.035156 14.109375 -6.9375 14.109375 -8.03125 C 14.109375 -9.132812 13.75 -10.039062 13.03125 -10.75 C 12.3125 -11.46875 11.425781 -11.828125 10.375 -11.828125 C 9.3125 -11.828125 8.414062 -11.46875 7.6875 -10.75 Z M 7.6875 -10.75 "/></g></g></g><g fill="#000000" fill-opacity="1"><g transform="translate(106.634926, 304.922269)"><g><path d="M 2.828125 -16.09375 L 2.828125 -19.5 C 2.847656 -21.90625 3.410156 -23.828125 4.515625 -25.265625 C 5.617188 -26.710938 7.15625 -27.4375 9.125 -27.4375 C 9.957031 -27.4375 10.753906 -27.316406 11.515625 -27.078125 C 12.285156 -26.835938 12.835938 -26.59375 13.171875 -26.34375 L 13.703125 -26 L 11.765625 -22.078125 C 11.253906 -22.367188 10.695312 -22.515625 10.09375 -22.515625 C 9.40625 -22.515625 8.945312 -22.28125 8.71875 -21.8125 C 8.488281 -21.34375 8.375 -20.519531 8.375 -19.34375 L 8.375 -16.09375 L 12.078125 -16.09375 L 12.078125 -11.859375 L 8.375 -11.859375 L 8.375 0 L 2.828125 0 L 2.828125 -11.859375 L 0.5 -11.859375 L 0.5 -16.09375 Z M 2.828125 -16.09375 "/></g></g></g><g fill="#000000" fill-opacity="1"><g transform="translate(118.395015, 304.922269)"><g><path d="M 2.96875 -1.984375 C 1.46875 -3.628906 0.71875 -5.644531 0.71875 -8.03125 C 0.71875 -10.414062 1.46875 -12.429688 2.96875 -14.078125 C 4.476562 -15.734375 6.394531 -16.5625 8.71875 -16.5625 C 10.851562 -16.5625 12.609375 -15.890625 13.984375 -14.546875 L 13.984375 -16.09375 L 19.53125 -16.09375 L 19.53125 0 L 14.046875 0 L 14.046875 -1.8125 L 13.984375 -1.8125 C 12.609375 -0.289062 10.851562 0.46875 8.71875 0.46875 C 6.394531 0.46875 4.476562 -0.347656 2.96875 -1.984375 Z M 7.6875 -10.75 C 6.96875 -10.039062 6.609375 -9.128906 6.609375 -8.015625 C 6.609375 -6.910156 6.953125 -6.007812 7.640625 -5.3125 C 8.335938 -4.613281 9.25 -4.265625 10.375 -4.265625 C 11.46875 -4.265625 12.363281 -4.617188 13.0625 -5.328125 C 13.757812 -6.035156 14.109375 -6.9375 14.109375 -8.03125 C 14.109375 -9.132812 13.75 -10.039062 13.03125 -10.75 C 12.3125 -11.46875 11.425781 -11.828125 10.375 -11.828125 C 9.3125 -11.828125 8.414062 -11.46875 7.6875 -10.75 Z M 7.6875 -10.75 "/></g></g></g><g fill="#000000" fill-opacity="1"><g transform="translate(139.814057, 304.922269)"><g><path d="M 1.875 -11.484375 L 11.984375 -11.484375 L 11.984375 -6.671875 L 1.875 -6.671875 Z M 1.875 -11.484375 "/></g></g></g><g fill="#000000" fill-opacity="1"><g transform="translate(153.67528, 304.922269)"><g><path d="M 25.4375 0 L 17.3125 0 L 7.78125 -10.96875 L 7.78125 0 L 1.875 0 L 1.875 -25.875 L 7.78125 -25.875 L 7.78125 -15.296875 L 16.65625 -25.875 L 23.796875 -25.875 L 13.390625 -13.609375 Z M 25.4375 0 "/></g></g></g><g fill="#000000" fill-opacity="1"><g transform="translate(178.355776, 304.922269)"><g><path d="M 2.40625 -25.046875 C 3.0625 -25.703125 3.835938 -26.03125 4.734375 -26.03125 C 5.628906 -26.03125 6.398438 -25.703125 7.046875 -25.046875 C 7.703125 -24.398438 8.03125 -23.628906 8.03125 -22.734375 C 8.03125 -21.835938 7.703125 -21.0625 7.046875 -20.40625 C 6.398438 -19.757812 5.628906 -19.4375 4.734375 -19.4375 C 3.835938 -19.4375 3.0625 -19.757812 2.40625 -20.40625 C 1.757812 -21.0625 1.4375 -21.835938 1.4375 -22.734375 C 1.4375 -23.628906 1.757812 -24.398438 2.40625 -25.046875 Z M 1.875 -16.09375 L 1.875 0 L 7.4375 0 L 7.4375 -16.09375 Z M 1.875 -16.09375 "/></g></g></g><g fill="#000000" fill-opacity="1"><g transform="translate(187.82657, 304.922269)"><g><path d="M 1.875 0 L 1.875 -16.09375 L 7.4375 -16.09375 L 7.4375 -14.390625 L 7.5 -14.390625 C 8.9375 -15.835938 10.472656 -16.5625 12.109375 -16.5625 C 12.898438 -16.5625 13.6875 -16.457031 14.46875 -16.25 C 15.25 -16.039062 16 -15.710938 16.71875 -15.265625 C 17.445312 -14.828125 18.035156 -14.207031 18.484375 -13.40625 C 18.929688 -12.601562 19.15625 -11.664062 19.15625 -10.59375 L 19.15625 0 L 13.609375 0 L 13.609375 -9.09375 C 13.609375 -9.925781 13.34375 -10.65625 12.8125 -11.28125 C 12.28125 -11.914062 11.582031 -12.234375 10.71875 -12.234375 C 9.882812 -12.234375 9.128906 -11.90625 8.453125 -11.25 C 7.773438 -10.601562 7.4375 -9.882812 7.4375 -9.09375 L 7.4375 0 Z M 1.875 0 "/></g></g></g><g fill="#000000" fill-opacity="1"><g transform="translate(208.555677, 304.922269)"><g><path d="M 1.15625 3.953125 L 5.703125 1.71875 C 6.546875 3.101562 8 3.796875 10.0625 3.796875 C 11.03125 3.796875 11.925781 3.484375 12.75 2.859375 C 13.570312 2.242188 13.984375 1.300781 13.984375 0.03125 L 13.984375 -1.15625 C 13.003906 -0.0703125 11.25 0.46875 8.71875 0.46875 C 6.394531 0.46875 4.476562 -0.347656 2.96875 -1.984375 C 1.46875 -3.628906 0.71875 -5.644531 0.71875 -8.03125 C 0.71875 -10.414062 1.46875 -12.429688 2.96875 -14.078125 C 4.476562 -15.734375 6.394531 -16.5625 8.71875 -16.5625 C 10.789062 -16.5625 12.515625 -15.921875 13.890625 -14.640625 L 13.984375 -14.640625 L 13.984375 -16.09375 L 19.53125 -16.09375 L 19.53125 0.4375 C 19.53125 3.050781 18.660156 5.066406 16.921875 6.484375 C 15.191406 7.910156 12.90625 8.625 10.0625 8.625 C 5.46875 8.625 2.5 7.066406 1.15625 3.953125 Z M 7.6875 -10.75 C 6.96875 -10.039062 6.609375 -9.128906 6.609375 -8.015625 C 6.609375 -6.910156 6.953125 -6.007812 7.640625 -5.3125 C 8.335938 -4.613281 9.25 -4.265625 10.375 -4.265625 C 11.46875 -4.265625 12.363281 -4.617188 13.0625 -5.328125 C 13.757812 -6.035156 14.109375 -6.9375 14.109375 -8.03125 C 14.109375 -9.132812 13.75 -10.039062 13.03125 -10.75 C 12.3125 -11.46875 11.425781 -11.828125 10.375 -11.828125 C 9.3125 -11.828125 8.414062 -11.46875 7.6875 -10.75 Z M 7.6875 -10.75 "/></g></g></g><g fill="#000000" fill-opacity="1"><g transform="translate(229.974719, 304.922269)"><g/></g></g><g fill="#000000" fill-opacity="1"><g transform="translate(238.536057, 304.922269)"><g><path d="M 15.640625 -5.328125 C 16.546875 -5.328125 17.421875 -5.460938 18.265625 -5.734375 C 19.109375 -6.003906 19.726562 -6.265625 20.125 -6.515625 L 20.734375 -6.9375 L 23.234375 -1.90625 C 23.148438 -1.84375 23.035156 -1.757812 22.890625 -1.65625 C 22.742188 -1.550781 22.40625 -1.359375 21.875 -1.078125 C 21.34375 -0.796875 20.769531 -0.550781 20.15625 -0.34375 C 19.550781 -0.132812 18.757812 0.0507812 17.78125 0.21875 C 16.800781 0.382812 15.785156 0.46875 14.734375 0.46875 C 12.328125 0.46875 10.046875 -0.117188 7.890625 -1.296875 C 5.742188 -2.484375 4.007812 -4.109375 2.6875 -6.171875 C 1.375 -8.242188 0.71875 -10.484375 0.71875 -12.890625 C 0.71875 -14.703125 1.101562 -16.445312 1.875 -18.125 C 2.65625 -19.800781 3.6875 -21.234375 4.96875 -22.421875 C 6.257812 -23.609375 7.757812 -24.554688 9.46875 -25.265625 C 11.1875 -25.984375 12.941406 -26.34375 14.734375 -26.34375 C 16.410156 -26.34375 17.953125 -26.144531 19.359375 -25.75 C 20.773438 -25.351562 21.773438 -24.953125 22.359375 -24.546875 L 23.234375 -23.953125 L 20.734375 -18.9375 C 20.585938 -19.0625 20.363281 -19.210938 20.0625 -19.390625 C 19.769531 -19.566406 19.1875 -19.800781 18.3125 -20.09375 C 17.4375 -20.394531 16.546875 -20.546875 15.640625 -20.546875 C 14.222656 -20.546875 12.945312 -20.3125 11.8125 -19.84375 C 10.6875 -19.382812 9.796875 -18.78125 9.140625 -18.03125 C 8.484375 -17.28125 7.984375 -16.46875 7.640625 -15.59375 C 7.296875 -14.726562 7.125 -13.847656 7.125 -12.953125 C 7.125 -10.984375 7.859375 -9.21875 9.328125 -7.65625 C 10.804688 -6.101562 12.910156 -5.328125 15.640625 -5.328125 Z M 15.640625 -5.328125 "/></g></g></g><g fill="#000000" fill-opacity="1"><g transform="translate(262.150314, 304.922269)"><g><path d="M 3.390625 -1.90625 C 1.609375 -3.5 0.71875 -5.539062 0.71875 -8.03125 C 0.71875 -10.519531 1.644531 -12.5625 3.5 -14.15625 C 5.363281 -15.757812 7.664062 -16.5625 10.40625 -16.5625 C 13.101562 -16.5625 15.375 -15.753906 17.21875 -14.140625 C 19.070312 -12.535156 20 -10.5 20 -8.03125 C 20 -5.5625 19.09375 -3.523438 17.28125 -1.921875 C 15.476562 -0.328125 13.1875 0.46875 10.40625 0.46875 C 7.519531 0.46875 5.179688 -0.320312 3.390625 -1.90625 Z M 7.6875 -10.75 C 6.96875 -10.039062 6.609375 -9.128906 6.609375 -8.015625 C 6.609375 -6.910156 6.953125 -6.007812 7.640625 -5.3125 C 8.335938 -4.613281 9.25 -4.265625 10.375 -4.265625 C 11.46875 -4.265625 12.363281 -4.617188 13.0625 -5.328125 C 13.757812 -6.035156 14.109375 -6.9375 14.109375 -8.03125 C 14.109375 -9.132812 13.75 -10.039062 13.03125 -10.75 C 12.3125 -11.46875 11.425781 -11.828125 10.375 -11.828125 C 9.3125 -11.828125 8.414062 -11.46875 7.6875 -10.75 Z M 7.6875 -10.75 "/></g></g></g><g fill="#000000" fill-opacity="1"><g transform="translate(282.87942, 304.922269)"><g><path d="M 3.390625 -1.90625 C 1.609375 -3.5 0.71875 -5.539062 0.71875 -8.03125 C 0.71875 -10.519531 1.644531 -12.5625 3.5 -14.15625 C 5.363281 -15.757812 7.664062 -16.5625 10.40625 -16.5625 C 13.101562 -16.5625 15.375 -15.753906 17.21875 -14.140625 C 19.070312 -12.535156 20 -10.5 20 -8.03125 C 20 -5.5625 19.09375 -3.523438 17.28125 -1.921875 C 15.476562 -0.328125 13.1875 0.46875 10.40625 0.46875 C 7.519531 0.46875 5.179688 -0.320312 3.390625 -1.90625 Z M 7.6875 -10.75 C 6.96875 -10.039062 6.609375 -9.128906 6.609375 -8.015625 C 6.609375 -6.910156 6.953125 -6.007812 7.640625 -5.3125 C 8.335938 -4.613281 9.25 -4.265625 10.375 -4.265625 C 11.46875 -4.265625 12.363281 -4.617188 13.0625 -5.328125 C 13.757812 -6.035156 14.109375 -6.9375 14.109375 -8.03125 C 14.109375 -9.132812 13.75 -10.039062 13.03125 -10.75 C 12.3125 -11.46875 11.425781 -11.828125 10.375 -11.828125 C 9.3125 -11.828125 8.414062 -11.46875 7.6875 -10.75 Z M 7.6875 -10.75 "/></g></g></g><g fill="#000000" fill-opacity="1"><g transform="translate(303.608527, 304.922269)"><g><path d="M 1.875 0 L 1.875 -26.96875 L 7.4375 -26.96875 L 7.4375 0 Z M 1.875 0 "/></g></g></g></svg>